<?xml version="1.0" standalone="no"?>
<!DOCTYPE svg PUBLIC "-//W3C//DTD SVG 20010904//EN"
 "http://www.w3.org/TR/2001/REC-SVG-20010904/DTD/svg10.dtd">
<svg version="1.0" xmlns="http://www.w3.org/2000/svg"
 width="200.000000pt" height="200.000000pt" viewBox="0 0 200.000000 200.000000"
 preserveAspectRatio="xMidYMid meet">

<g transform="translate(0.000000,200.000000) scale(0.100000,-0.100000)"
fill="#000000" stroke="none">
<path d="M872 1642 c-66 -24 -148 -80 -185 -127 -16 -20 -40 -61 -55 -93 -24
-51 -27 -69 -27 -167 0 -100 3 -115 28 -166 125 -256 454 -313 653 -115 27 28
63 78 80 111 27 55 29 69 29 170 0 102 -2 115 -31 175 -39 82 -106 150 -191
192 -57 28 -78 33 -157 35 -70 3 -103 -1 -144 -15z"/>
<path d="M532 778 c-29 -29 3 -73 34 -47 19 15 18 45 -2 53 -20 8 -18 8 -32
-6z"/>
<path d="M939 773 c-1 -5 -2 -19 -3 -33 -1 -22 -6 -25 -38 -25 -45 0 -85 -34
-94 -81 -12 -64 24 -107 72 -85 17 8 31 8 48 0 32 -15 69 4 61 31 -3 11 3 50
14 88 31 103 29 112 -19 112 -22 0 -41 -3 -41 -7z m-30 -137 c-7 -27 -17 -46
-25 -46 -17 0 -18 19 -3 57 9 26 29 46 37 39 1 -2 -2 -24 -9 -50z"/>
<path d="M293 746 c7 -17 -30 -154 -46 -174 -17 -21 6 -34 54 -30 42 3 44 4
41 33 -1 17 2 37 8 45 9 13 12 12 25 -4 19 -26 34 -12 42 40 l6 38 -27 -18
c-34 -22 -39 -18 -25 22 13 37 44 43 54 12 4 -13 15 -20 31 -20 13 0 24 -6 24
-13 0 -30 -32 -117 -42 -117 -9 0 -9 -3 -1 -11 5 -5 30 -9 54 -7 38 3 44 6 46
28 1 14 9 47 17 75 9 29 12 53 7 58 -5 5 -28 8 -50 5 -39 -3 -41 -2 -39 22 3
25 3 25 -91 28 -79 2 -93 0 -88 -12z"/>
<path d="M1060 739 c0 -27 -39 -160 -51 -175 -13 -16 0 -24 42 -24 50 0 72 9
60 24 -6 7 -8 21 -5 33 4 16 16 22 50 26 25 2 54 13 66 23 21 19 21 19 14 -8
-10 -41 8 -75 47 -87 36 -12 61 -7 90 17 26 23 21 29 -19 28 -22 -1 -39 4 -41
12 -3 8 6 12 27 12 47 0 70 16 70 50 0 25 -5 31 -39 41 -35 10 -45 9 -80 -8
l-41 -20 0 23 c0 38 -36 54 -117 54 -68 0 -73 -1 -73 -21z m112 -39 c-3 -28
-19 -50 -37 -50 -10 0 -11 9 -3 40 8 30 15 40 27 38 10 -3 15 -12 13 -28z
m168 -22 c0 -19 -18 -43 -25 -36 -4 3 -2 16 5 27 12 24 20 27 20 9z"/>
<path d="M1477 730 c-14 -11 -32 -20 -41 -20 -19 0 -21 -11 -5 -27 8 -8 8 -25
-2 -62 -11 -45 -11 -53 3 -67 19 -19 79 -12 98 11 10 12 9 15 -10 15 -18 0
-21 4 -16 23 4 12 9 34 12 50 4 18 13 27 25 27 11 0 19 7 19 15 0 8 -4 15 -10
15 -5 0 -10 9 -10 20 0 13 -7 20 -19 20 -10 0 -30 -9 -44 -20z"/>
<path d="M1605 708 c-48 -27 -46 -61 5 -93 23 -14 38 -30 35 -35 -10 -17 -32
-11 -38 10 -3 13 -14 20 -30 20 -54 0 -43 -45 14 -60 52 -14 106 -3 125 25 19
29 11 46 -33 70 -20 11 -38 26 -41 33 -6 19 16 14 38 -8 17 -17 24 -18 41 -10
25 14 20 31 -12 47 -30 16 -78 16 -104 1z"/>
<path d="M599 708 c0 -2 -1 -19 -3 -39 -2 -20 -12 -56 -23 -79 -24 -47 -19
-53 43 -48 26 2 38 7 36 16 -4 20 20 91 35 103 17 15 17 0 1 -54 -11 -35 -10
-41 7 -53 10 -8 26 -14 35 -14 22 0 58 30 44 36 -8 4 -7 19 3 55 12 39 12 53
3 64 -14 17 -53 19 -81 5 -13 -7 -19 -7 -19 0 0 8 -79 16 -81 8z"/>
</g>
</svg>
